<svg width="13" height="13" viewBox="0 0 13 13" fill="none" xmlns="http://www.w3.org/2000/svg">
<g clip-path="url(#clip0_633_19)">
<path d="M12.4584 5.9585H11.3751V4.87515C11.3751 4.576 11.1326 4.3335 10.8334 4.3335C10.5343 4.3335 10.2917 4.576 10.2917 4.87515V5.9585H9.20841C8.90925 5.9585 8.66675 6.201 8.66675 6.50015C8.66675 6.79931 8.90925 7.04181 9.20841 7.04181H10.2917V8.12515C10.2917 8.42431 10.5343 8.66681 10.8334 8.66681C11.1326 8.66681 11.3751 8.42431 11.3751 8.12515V7.04181H12.4584C12.7576 7.04181 13.0001 6.79931 13.0001 6.50015C13.0001 6.201 12.7576 5.9585 12.4584 5.9585Z" fill="white"/>
<path d="M4.875 6.5C6.66993 6.5 8.125 5.04493 8.125 3.25C8.125 1.45507 6.66993 0 4.875 0C3.08007 0 1.625 1.45507 1.625 3.25C1.625 5.04493 3.08007 6.5 4.875 6.5Z" fill="white"/>
<path d="M4.875 7.5835C2.18385 7.58649 0.00299609 9.76734 0 12.4585C0 12.7576 0.242506 13.0002 0.541658 13.0002H9.20832C9.50747 13.0002 9.74997 12.7576 9.74997 12.4585C9.747 9.76734 7.56615 7.58647 4.875 7.5835Z" fill="white"/>
</g>
<defs>
<clipPath id="clip0_633_19">
<rect width="13" height="13" fill="white"/>
</clipPath>
</defs>
</svg>
