<svg width="31" height="31" viewBox="0 0 31 31" fill="none" xmlns="http://www.w3.org/2000/svg">
<g clip-path="url(#clip0_633_193)" filter="url(#filter0_i_633_193)">
<path d="M10.5256 7.5168C9.81469 7.40827 9.09839 7.354 8.38751 7.354C8.11075 7.354 7.78516 7.354 7.5084 7.354C7.34561 10.0673 7.83942 12.8891 8.93559 15.4938L15.7405 8.76491C14.0908 8.11372 12.338 7.6796 10.5256 7.5168Z" fill="white"/>
<path d="M4.54004 3.66411C4.54004 3.77264 4.5943 3.88117 4.70284 3.9897C4.81137 4.04396 4.9199 4.1525 5.14239 4.20676V3.22998C4.70826 3.22998 4.54004 3.39278 4.54004 3.66411Z" fill="white"/>
<path d="M17.6614 17.4476C18.5947 16.5251 18.5947 15.0057 17.6614 14.0831C17.2218 13.649 16.6195 13.3777 15.9574 13.3777C15.3008 13.3777 14.693 13.649 14.2535 14.0831C13.3201 15.0057 13.3201 16.5251 14.2535 17.4476C14.693 17.8817 15.2954 18.1531 15.9574 18.1531C16.6195 18.1531 17.2218 17.8817 17.6614 17.4476Z" fill="white"/>
<path d="M5.41919 5.61768V6.54019C5.80448 6.54019 6.02154 6.37739 6.02154 6.10607C6.02154 5.99753 5.96727 5.889 5.85874 5.78047C5.75021 5.72621 5.64168 5.67194 5.41919 5.61768Z" fill="white"/>
<path d="M23.6469 14.4086C23.3158 14.0287 22.936 13.6489 22.605 13.269C20.8468 11.4783 18.7087 10.0674 16.4567 9.09058L9.20679 16.1994C10.1944 18.37 11.6216 20.4321 13.3798 22.1686C13.7651 22.5484 14.2046 22.9283 14.5899 23.3082L23.6469 14.4086ZM13.7651 13.5946C14.3674 12.9977 15.138 12.7264 15.9629 12.7264C16.7877 12.7264 17.5528 13.052 18.1606 13.5946C19.3707 14.7885 19.3707 16.742 18.1606 17.9359C17.5583 18.5328 16.7877 18.8041 15.9629 18.8041C15.138 18.8041 14.3729 18.4785 13.7651 17.9359C12.555 16.742 12.555 14.7885 13.7651 13.5946Z" fill="white"/>
<path d="M6.84628 10.2301C6.73775 9.25334 6.73775 8.27656 6.79201 7.35405C6.62922 7.46258 6.46099 7.57111 6.24393 7.62537C6.02687 7.67964 5.75011 7.7339 5.52762 7.7339V8.65642H4.97954V7.7339C4.59426 7.67964 4.26866 7.62537 3.88338 7.51684C3.55236 7.40831 3.22676 7.24551 2.89574 7.08272L3.44383 5.94314C3.44383 5.94314 3.49809 5.9974 3.60662 6.05167C3.71515 6.10594 3.82368 6.1602 3.93764 6.21447C4.10044 6.26873 4.26866 6.323 4.43146 6.37726C4.59426 6.43153 4.81674 6.4858 4.97954 6.4858V5.45475L4.70821 5.40048C4.43146 5.34622 4.2144 5.23769 4.04617 5.12916C3.88338 5.02062 3.72058 4.91209 3.55236 4.80356C3.44383 4.69503 3.33529 4.53223 3.2756 4.36944C3.22134 4.20664 3.16707 4.04384 3.16707 3.82678C3.16707 3.55545 3.22134 3.33839 3.32987 3.12133C3.4384 2.90426 3.54693 2.74147 3.71515 2.57867C3.88338 2.41587 4.04617 2.30734 4.26866 2.19881C4.48572 2.09028 4.70821 2.03602 4.97954 2.03602V1.22203H5.52762V2.03602C5.85864 2.09028 6.18424 2.14455 6.51526 2.25308C6.79201 2.36161 7.06334 2.47014 7.28583 2.63294L6.73775 3.71825C6.73775 3.71825 6.68348 3.66398 6.57495 3.60972C6.52069 3.55545 6.41215 3.50119 6.2982 3.44692C6.18966 3.39266 6.02144 3.33839 5.91291 3.28412C5.75011 3.22986 5.63616 3.17559 5.47336 3.17559V4.26091L5.75011 4.31517C6.02687 4.36944 6.24393 4.47797 6.46642 4.53223C6.68348 4.64076 6.85171 4.7493 7.0145 4.85783C7.1773 4.96636 7.29126 5.12916 7.34552 5.34622C7.39979 5.50901 7.45405 5.72608 7.45405 5.99741C7.45405 6.26873 7.39979 6.4858 7.34552 6.70286C7.67654 6.70286 8.06183 6.64859 8.38742 6.64859C9.04404 6.64859 9.70608 6.70286 10.3627 6.75712C10.9108 4.96636 10.417 3.0128 9.04404 1.65616C8.0564 0.679375 6.79201 0.136719 5.36483 0.136719C3.93764 0.136719 2.67325 0.679375 1.68562 1.65616C0.697985 2.63294 0.149902 3.88105 0.149902 5.29195C0.149902 6.70286 0.697985 7.95097 1.68562 8.92775C3.05854 10.2301 5.03381 10.7185 6.84628 10.2301Z" fill="white"/>
<path d="M24.0812 14.9512L15.1382 23.7965C17.4445 25.6415 20.136 26.8896 22.9904 27.5951L27.8743 22.7654C27.158 19.8893 25.8936 17.2846 24.0812 14.9512ZM23.4788 23.1995C23.1478 23.5251 22.7082 23.6879 22.2687 23.6879C21.8291 23.6879 21.3896 23.5251 21.0586 23.1995C20.7275 22.874 20.5647 22.4398 20.5647 22.0057C20.5647 21.5716 20.7275 21.1375 21.0586 20.8119C21.3896 20.4863 21.8291 20.3235 22.2687 20.3235C22.7082 20.3235 23.1478 20.4863 23.4788 20.8119C23.8098 21.1375 23.9726 21.5716 23.9726 22.0057C23.9726 22.4398 23.8098 22.874 23.4788 23.1995Z" fill="white"/>
<path d="M16.2342 28.9519L17.9381 30.6341L20.9553 27.6495C18.649 26.8898 16.5109 25.696 14.5899 24.1765C14.3132 25.9673 14.9155 27.7038 16.2342 28.9519Z" fill="white"/>
<path d="M24.4663 14.3542C26.002 16.2535 27.2121 18.3699 27.9773 20.7033L30.9945 17.7187L29.2905 16.0365C28.037 14.7341 26.2245 14.1372 24.4663 14.3542Z" fill="white"/>
<path d="M28.3082 25.5874L29.2958 25.6416L27.4291 24.0137L24.1895 27.2153L25.8337 29.1146L25.7794 27.8665C25.7794 27.758 25.8337 27.6495 25.9422 27.5952C26.0508 27.5409 26.1593 27.5409 26.2733 27.5952L29.2362 28.9518L27.9175 26.13C27.8632 26.0215 27.8632 25.913 27.9718 25.8044C28.0912 25.6416 28.1997 25.5874 28.3082 25.5874Z" fill="white"/>
<path d="M22.2741 20.9749C21.9973 20.9749 21.726 21.0834 21.5578 21.2462C21.1725 21.626 21.1725 22.2772 21.5578 22.7114C21.7748 22.9284 21.9973 22.9827 22.2741 22.9827C22.5508 22.9827 22.8222 22.8741 22.9849 22.7114C23.3702 22.3315 23.3702 21.6803 22.9849 21.2462C22.8222 21.0834 22.5454 20.9749 22.2741 20.9749Z" fill="white"/>
<path d="M27.8144 10.5557C28.2105 10.5557 28.5253 10.8704 28.5253 11.2611C28.5253 11.6518 28.2051 11.9666 27.8144 11.9666C27.4183 11.9666 27.1035 11.6518 27.1035 11.2611C27.1035 10.8704 27.4237 10.5557 27.8144 10.5557Z" fill="white"/>
<path d="M14.0908 3.77271C14.487 3.77271 14.8017 4.08745 14.8017 4.47816C14.8017 4.86887 14.4815 5.18361 14.0908 5.18361C13.6947 5.18361 13.3745 4.86887 13.3745 4.47816C13.3799 4.08745 13.7001 3.77271 14.0908 3.77271Z" fill="white"/>
<path d="M22.9848 1.71045C23.3809 1.71045 23.6957 2.02519 23.6957 2.4159C23.6957 2.80661 23.3755 3.12136 22.9848 3.12136C22.5887 3.12136 22.2739 2.80661 22.2739 2.4159C22.2739 2.02519 22.5941 1.71045 22.9848 1.71045Z" fill="white"/>
<path d="M1.73987 19.4011C2.10345 19.4011 2.39648 19.6942 2.39648 20.0523C2.39648 20.4105 2.10345 20.7035 1.73987 20.7035C1.37629 20.7035 1.08325 20.4105 1.08325 20.0523C1.08325 19.6942 1.37629 19.4011 1.73987 19.4011Z" fill="white"/>
<path d="M10.634 26.8354C11.0302 26.8354 11.3449 27.1502 11.3449 27.5409C11.3449 27.9316 11.0247 28.2464 10.634 28.2464C10.2379 28.2464 9.91772 27.9316 9.91772 27.5409C9.92315 27.1502 10.2379 26.8354 10.634 26.8354Z" fill="white"/>
<path d="M1.73987 28.2463C2.10345 28.2463 2.39648 28.5394 2.39648 28.8975C2.39648 29.2557 2.10345 29.5487 1.73987 29.5487C1.37629 29.5487 1.08325 29.2557 1.08325 28.8975C1.08325 28.5394 1.37629 28.2463 1.73987 28.2463Z" fill="white"/>
<path d="M19.8591 7.57108C19.9134 7.62534 20.0219 7.67961 20.0762 7.67961C20.1847 7.67961 20.239 7.62534 20.2932 7.57108C20.4018 7.46255 20.4018 7.24548 20.2932 7.08269L14.0364 0.842141C13.9279 0.733609 13.7054 0.733609 13.5426 0.842141C13.434 0.950672 13.434 1.16773 13.5426 1.33053L19.8591 7.57108Z" fill="white"/>
<path d="M24.6889 9.52471C24.7432 9.57898 24.8517 9.63325 24.906 9.63325C25.0145 9.63325 25.0688 9.57898 25.123 9.52471C25.2316 9.41618 25.2316 9.19912 25.123 9.03632L19.7996 3.77256C19.691 3.66403 19.4686 3.66403 19.3058 3.77256C19.1972 3.88109 19.1972 4.09815 19.3058 4.26095L24.6889 9.52471Z" fill="white"/>
<path d="M10.1402 23.9052L3.82912 17.6647C3.72059 17.5561 3.4981 17.5561 3.3353 17.6647C3.22677 17.7732 3.22677 17.9902 3.3353 18.153L9.6464 24.3936C9.70066 24.4479 9.80919 24.5021 9.86346 24.5021C9.97199 24.5021 10.0263 24.4479 10.0805 24.3936C10.2487 24.2308 10.2487 24.0137 10.1402 23.9052Z" fill="white"/>
<path d="M1.90822 12.8348C1.79969 12.7263 1.5772 12.7263 1.41441 12.8348C1.30588 12.9433 1.30588 13.1604 1.41441 13.3232L6.73786 18.587C6.79213 18.6412 6.90066 18.6955 6.95493 18.6955C7.00919 18.6955 7.11772 18.6412 7.17199 18.587C7.28052 18.4784 7.28052 18.2614 7.17199 18.0986L1.90822 12.8348Z" fill="white"/>
<path d="M4.48568 23.7966C3.55231 23.7966 2.78174 24.5564 2.78174 25.4789C2.78174 26.4014 3.55231 27.1611 4.48568 27.1611C5.41905 27.1611 6.18962 26.4014 6.18962 25.4789C6.18962 24.5564 5.41905 23.7966 4.48568 23.7966Z" fill="white"/>
<path d="M27.4346 6.16032C28.5851 6.16032 29.5184 5.2378 29.5184 4.09823C29.5184 2.95865 28.5851 2.03613 27.4346 2.03613C26.2842 2.03613 25.3508 2.95865 25.3508 4.09823C25.3508 5.2378 26.333 6.16032 27.4346 6.16032Z" fill="white"/>
</g>
<defs>
<filter id="filter0_i_633_193" x="0.149902" y="0.136719" width="30.8501" height="34.2198" filterUnits="userSpaceOnUse" color-interpolation-filters="sRGB">
<feFlood flood-opacity="0" result="BackgroundImageFix"/>
<feBlend mode="normal" in="SourceGraphic" in2="BackgroundImageFix" result="shape"/>
<feColorMatrix in="SourceAlpha" type="matrix" values="0 0 0 0 0 0 0 0 0 0 0 0 0 0 0 0 0 0 127 0" result="hardAlpha"/>
<feOffset dy="3.72247"/>
<feGaussianBlur stdDeviation="1.86124"/>
<feComposite in2="hardAlpha" operator="arithmetic" k2="-1" k3="1"/>
<feColorMatrix type="matrix" values="0 0 0 0 0 0 0 0 0 0 0 0 0 0 0 0 0 0 0.25 0"/>
<feBlend mode="normal" in2="shape" result="effect1_innerShadow_633_193"/>
</filter>
<clipPath id="clip0_633_193">
<rect width="30.85" height="30.4973" fill="white" transform="translate(0.149902 0.136719)"/>
</clipPath>
</defs>
</svg>
