<svg width="8" height="7" viewBox="0 0 8 7" fill="none" xmlns="http://www.w3.org/2000/svg">
<path d="M3.41323 6.54364L3.8352 6.9313H3.84769L3.88265 6.95829C3.91672 6.98498 3.95892 6.99966 4.00249 7C4.0271 7.00011 4.05149 6.9954 4.07421 6.98613C4.09693 6.97686 4.11754 6.96323 4.13483 6.94603L4.58677 6.53382C7.64295 3.72695 7.95506 2.07571 7.97504 1.95058C7.99132 1.86563 7.99967 1.7794 8 1.69296C8 0.760609 7.05369 0 5.88765 0C5.04121 0 4.33958 0.83667 4.00001 1.55556C3.66043 0.83667 2.95881 0 2.11237 0C0.946323 0 0 0.760609 0 1.69296C4.95163e-05 1.77536 0.00840727 1.85754 0.0249627 1.93832C0.128586 2.39253 0.312841 2.82524 0.569281 3.21662C1.35037 4.45363 2.30812 5.57407 3.41323 6.54364ZM2.10487 0.392571C2.94132 0.392571 3.66542 1.57028 3.80274 2.17631C3.81287 2.21827 3.83712 2.25563 3.87157 2.28235C3.90601 2.30907 3.94863 2.32358 3.99251 2.32352C4.0362 2.32392 4.07869 2.30949 4.11281 2.28267C4.14693 2.25585 4.17058 2.21828 4.17978 2.17631C4.3196 1.57028 5.0437 0.392571 5.88015 0.392571C6.83146 0.392571 7.6055 0.981426 7.6055 1.70523C7.60566 1.76872 7.59896 1.83204 7.58552 1.89415C7.58552 1.90887 7.32334 3.49632 4.3146 6.25657L3.99251 6.55346L3.67042 6.25657C0.659179 3.49632 0.406985 1.95058 0.399495 1.88679C0.387723 1.82696 0.381868 1.76616 0.382015 1.70523C0.387009 0.981426 1.16105 0.392571 2.10487 0.392571Z" fill="#F2F3F4"/>
</svg>
