<svg width="29" height="29" viewBox="0 0 29 29" fill="none" xmlns="http://www.w3.org/2000/svg">
<g clip-path="url(#clip0_633_83)" filter="url(#filter0_i_633_83)">
<path d="M13.4236 18.3315L15.2567 17.319L13.4236 16.2532V18.3315Z" fill="white"/>
<path d="M20.916 9.96507C23.1275 9.96507 24.9606 8.15323 24.9606 5.96837C24.9606 3.78351 23.1275 1.97168 20.916 1.97168C18.7045 1.97168 16.8713 3.78351 16.8713 5.96837C16.8713 8.15323 18.6512 9.96507 20.916 9.96507ZM20.4843 6.3414C20.2712 6.28811 20.106 6.23482 19.9461 6.12824C19.7863 6.07495 19.6744 5.96837 19.5678 5.86179C19.4612 5.75522 19.4079 5.64864 19.3546 5.54206C19.3013 5.43548 19.3013 5.27561 19.3013 5.11575C19.3013 4.90259 19.3546 4.68943 19.4079 4.52956C19.4612 4.3697 19.5678 4.20983 19.733 4.10325C19.8395 3.99667 20.0047 3.89009 20.1646 3.8368C20.3245 3.78351 20.543 3.73022 20.7561 3.67694V3.03746H21.1878V3.67694C21.4595 3.67694 21.726 3.78351 21.9445 3.8368C22.1576 3.94338 22.3761 4.04996 22.5893 4.15654L22.1576 5.00917C22.1576 5.00917 22.1043 4.95588 22.0511 4.90259C21.9978 4.8493 21.8912 4.8493 21.8379 4.79601C21.7313 4.74272 21.6194 4.68943 21.5128 4.68943C21.4063 4.63614 21.2997 4.63614 21.1345 4.58285V5.43548L21.353 5.48877C21.5661 5.54206 21.7846 5.59535 21.9445 5.70193C22.1043 5.75522 22.2695 5.86179 22.3761 5.96837C22.4827 6.07495 22.5893 6.18153 22.6479 6.3414C22.7012 6.50127 22.7545 6.66113 22.7545 6.87429C22.7545 7.08745 22.7012 7.3006 22.6479 7.46047C22.5413 7.62034 22.4294 7.78021 22.3228 7.88679C22.163 7.99336 21.9978 8.09994 21.8379 8.15323C21.678 8.20652 21.4595 8.25981 21.2464 8.25981V9.00586H20.8147V8.25981C20.543 8.25981 20.2232 8.15323 19.9515 8.09994C19.6797 7.99336 19.4132 7.88679 19.1947 7.72692L19.6264 6.821C19.6264 6.821 19.6797 6.87429 19.7863 6.92758C19.8395 6.98087 19.9461 7.03416 20.0527 7.08745C20.1593 7.14074 20.3245 7.19403 20.4311 7.24731C20.5909 7.3006 20.6975 7.35389 20.8627 7.35389V6.50127L20.4843 6.3414Z" fill="white"/>
<path d="M9.43229 17.319C9.43229 15.6137 10.3489 14.1216 11.6971 13.3223H2.69653V21.3157H11.6971C10.3489 20.463 9.43229 18.9709 9.43229 17.319ZM5.0679 19.6104H3.71969V18.2782H5.0679V19.6104ZM5.0679 17.6387H3.71969V16.3065H5.0679V17.6387ZM5.0679 15.6137H3.71969V14.2815H5.0679V15.6137Z" fill="white"/>
<path d="M12.8321 2.66446C13.5888 2.66446 14.1803 2.07828 14.1803 1.33223C14.1803 0.586182 13.5888 0 12.8321 0C12.0754 0 11.4839 0.586182 11.4839 1.33223C11.4839 2.07828 12.0754 2.66446 12.8321 2.66446Z" fill="white"/>
<path d="M11.4837 8.95255C12.2404 8.95255 12.8319 8.36637 12.8319 7.62032C12.8319 6.87427 12.2404 6.28809 11.4837 6.28809C10.727 6.28809 10.1355 6.87427 10.1355 7.62032C10.1355 8.36637 10.727 8.95255 11.4837 8.95255Z" fill="white"/>
<path d="M3.71969 7.30056C4.25791 7.30056 4.74284 6.87425 4.74284 6.28806C4.74284 5.70188 4.25791 5.32886 3.71969 5.32886C3.18147 5.32886 2.69653 5.75517 2.69653 6.34135C2.69653 6.92753 3.18147 7.30056 3.71969 7.30056Z" fill="white"/>
<path d="M18.2197 17.319C18.2197 15.1341 16.3865 13.3223 14.175 13.3223C11.9635 13.3223 10.1304 15.1341 10.1304 17.319C10.1304 19.5038 11.9635 21.3157 14.175 21.3157C16.3865 21.3157 18.2197 19.5038 18.2197 17.319ZM16.1201 17.5854L13.2638 19.2374C13.2105 19.2907 13.1572 19.2907 13.1039 19.2907C13.0506 19.2907 12.9973 19.2907 12.944 19.2374C12.8375 19.1841 12.7842 19.0775 12.7842 18.9709V15.7203C12.7842 15.6137 12.8375 15.5071 12.944 15.4538C13.0506 15.4005 13.1572 15.4005 13.2691 15.4538L16.1254 17.1058C16.232 17.1591 16.2853 17.2657 16.2853 17.3722C16.2799 17.4788 16.2267 17.5321 16.1201 17.5854Z" fill="white"/>
<path d="M20.8093 4.58301C20.5376 4.58301 20.3777 4.74288 20.3777 4.95603C20.3777 5.06261 20.431 5.16919 20.4843 5.22248C20.5376 5.27577 20.6441 5.32906 20.8093 5.38235V4.58301Z" fill="white"/>
<path d="M21.5609 6.92778C21.5609 6.8212 21.5076 6.71462 21.4543 6.66133C21.3477 6.60804 21.2358 6.55475 21.0759 6.50146V7.24751C21.401 7.24751 21.5609 7.14094 21.5609 6.92778Z" fill="white"/>
<path d="M18.8698 17.319C18.8698 19.0242 17.9532 20.5163 16.605 21.3157H26.3089V13.3223H16.605C17.9532 14.1216 18.8698 15.6137 18.8698 17.319ZM23.9323 14.9742H25.2805V16.3065H23.9323V14.9742ZM23.9323 16.9459H25.2805V18.2782H23.9323V16.9459ZM23.9323 18.9709H25.2805V20.3032H23.9323V18.9709Z" fill="white"/>
<path d="M26.5753 10.658H2.42466C1.07644 10.658 0 11.7237 0 13.056V26.2184C0 27.5506 1.07644 28.6164 2.42466 28.6164H26.5753C27.9236 28.6164 29 27.5506 29 26.2184V13.056C29 11.7237 27.9236 10.658 26.5753 10.658ZM25.9838 25.952H5.39287V26.2717C5.39287 26.4316 5.233 26.5914 5.06781 26.5914C4.90794 26.5914 4.74274 26.4316 4.74274 26.2717V25.952H2.37137C2.2115 25.952 2.04631 25.7921 2.04631 25.6322C2.04631 25.4724 2.20617 25.3125 2.37137 25.3125H4.74274V24.9928C4.74274 24.8329 4.90261 24.673 5.06781 24.673C5.22767 24.673 5.39287 24.8329 5.39287 24.9928V25.3125H25.9305C26.0904 25.3125 26.2556 25.4724 26.2556 25.6322C26.2503 25.7921 26.1437 25.952 25.9838 25.952ZM26.9537 21.6355C26.9537 21.7954 26.7938 21.9553 26.6286 21.9553H2.37137C2.2115 21.9553 2.04631 21.7954 2.04631 21.6355V12.9494C2.04631 12.7895 2.20617 12.6297 2.37137 12.6297H26.6286C26.7885 12.6297 26.9537 12.7895 26.9537 12.9494V21.6355Z" fill="white"/>
</g>
<defs>
<filter id="filter0_i_633_83" x="0" y="0" width="29" height="33.3664" filterUnits="userSpaceOnUse" color-interpolation-filters="sRGB">
<feFlood flood-opacity="0" result="BackgroundImageFix"/>
<feBlend mode="normal" in="SourceGraphic" in2="BackgroundImageFix" result="shape"/>
<feColorMatrix in="SourceAlpha" type="matrix" values="0 0 0 0 0 0 0 0 0 0 0 0 0 0 0 0 0 0 127 0" result="hardAlpha"/>
<feOffset dy="4.75021"/>
<feGaussianBlur stdDeviation="2.3751"/>
<feComposite in2="hardAlpha" operator="arithmetic" k2="-1" k3="1"/>
<feColorMatrix type="matrix" values="0 0 0 0 0 0 0 0 0 0 0 0 0 0 0 0 0 0 0.25 0"/>
<feBlend mode="normal" in2="shape" result="effect1_innerShadow_633_83"/>
</filter>
<clipPath id="clip0_633_83">
<rect width="29" height="28.6163" fill="white"/>
</clipPath>
</defs>
</svg>
