<svg width="42" height="42" viewBox="0 0 42 42" fill="none" xmlns="http://www.w3.org/2000/svg">
<path d="M31.0277 21L37.9927 14.07C38.6752 13.3875 38.6752 12.25 37.9927 11.6025L30.3977 4.00748C29.7502 3.32498 28.6127 3.32498 27.9302 4.00748L21.0002 10.9725L14.0002 4.00748C13.6723 3.68154 13.2287 3.49859 12.7664 3.49859C12.3041 3.49859 11.8605 3.68154 11.5327 4.00748L3.93766 11.6025C3.25516 12.25 3.25516 13.3875 3.93766 14.07L10.9027 21L3.93766 28C3.25516 28.6825 3.25516 29.75 3.93766 30.4675L11.5327 38.0625C12.2502 38.745 13.3177 38.745 14.0002 38.0625L21.0002 31.0975L27.9302 38.0625C28.2802 38.4125 28.7177 38.57 29.1727 38.57C29.6277 38.57 30.0652 38.395 30.4152 38.0625L38.0102 30.4675C38.6927 29.75 38.6927 28.6825 38.0102 28L31.0277 21ZM21.0002 15.75C21.4643 15.75 21.9094 15.9344 22.2376 16.2625C22.5658 16.5907 22.7502 17.0359 22.7502 17.5C22.7502 17.9641 22.5658 18.4092 22.2376 18.7374C21.9094 19.0656 21.4643 19.25 21.0002 19.25C20.536 19.25 20.0909 19.0656 19.7627 18.7374C19.4345 18.4092 19.2502 17.9641 19.2502 17.5C19.2502 17.0359 19.4345 16.5907 19.7627 16.2625C20.0909 15.9344 20.536 15.75 21.0002 15.75ZM12.7577 19.18L6.40516 12.845L12.7577 6.49248L19.0927 12.8275L12.7577 19.18ZM17.5002 22.75C17.036 22.75 16.5909 22.5656 16.2627 22.2374C15.9345 21.9092 15.7502 21.4641 15.7502 21C15.7502 20.5359 15.9345 20.0907 16.2627 19.7625C16.5909 19.4344 17.036 19.25 17.5002 19.25C17.9643 19.25 18.4094 19.4344 18.7376 19.7625C19.0658 20.0907 19.2502 20.5359 19.2502 21C19.2502 21.4641 19.0658 21.9092 18.7376 22.2374C18.4094 22.5656 17.9643 22.75 17.5002 22.75ZM21.0002 26.25C20.536 26.25 20.0909 26.0656 19.7627 25.7374C19.4345 25.4092 19.2502 24.9641 19.2502 24.5C19.2502 24.0359 19.4345 23.5907 19.7627 23.2625C20.0909 22.9344 20.536 22.75 21.0002 22.75C21.4643 22.75 21.9094 22.9344 22.2376 23.2625C22.5658 23.5907 22.7502 24.0359 22.7502 24.5C22.7502 24.9641 22.5658 25.4092 22.2376 25.7374C21.9094 26.0656 21.4643 26.25 21.0002 26.25ZM24.5002 19.25C24.9643 19.25 25.4094 19.4344 25.7376 19.7625C26.0658 20.0907 26.2502 20.5359 26.2502 21C26.2502 21.4641 26.0658 21.9092 25.7376 22.2374C25.4094 22.5656 24.9643 22.75 24.5002 22.75C24.036 22.75 23.5909 22.5656 23.2627 22.2374C22.9345 21.9092 22.7502 21.4641 22.7502 21C22.7502 20.5359 22.9345 20.0907 23.2627 19.7625C23.5909 19.4344 24.036 19.25 24.5002 19.25ZM29.1552 35.595L22.8027 29.26L29.1552 22.9075L35.4902 29.2425L29.1552 35.595Z" fill="white"/>
</svg>
