<svg width="30" height="30" viewBox="0 0 30 30" fill="none" xmlns="http://www.w3.org/2000/svg">
<g clip-path="url(#clip0_633_115)" filter="url(#filter0_i_633_115)">
<path d="M2.0125 24.9382C2.39071 24.9382 2.6912 25.2387 2.6912 25.6118C2.6912 25.9848 2.38552 26.2853 2.0125 26.2853C1.63429 26.2853 1.32861 25.9848 1.32861 25.6118C1.33379 25.2387 1.63429 24.9382 2.0125 24.9382Z" fill="white"/>
<path d="M9.19316 21.7261C9.57137 21.7261 9.87704 22.0266 9.87704 22.3996C9.87704 22.7726 9.57137 23.0731 9.19316 23.0731C8.81495 23.0731 8.50928 22.7726 8.50928 22.3996C8.50928 22.0266 8.81495 21.7261 9.19316 21.7261Z" fill="white"/>
<path d="M22.3476 20.6899C22.7259 20.6899 23.0315 20.9904 23.0315 21.3635C23.0315 21.7365 22.7259 22.037 22.3476 22.037C21.9694 22.037 21.6689 21.7365 21.6689 21.3635C21.6689 20.9904 21.9694 20.6899 22.3476 20.6899Z" fill="white"/>
<path d="M23.6067 3.59277C23.985 3.59277 24.2906 3.89327 24.2906 4.2663C24.2906 4.63932 23.985 4.93982 23.6067 4.93982C23.2285 4.93982 22.928 4.63932 22.928 4.2663C22.9229 3.89327 23.2285 3.59277 23.6067 3.59277Z" fill="white"/>
<path d="M7.88256 1.00244C8.26077 1.00244 8.56644 1.30294 8.56644 1.67596C8.56644 2.04899 8.26077 2.34948 7.88256 2.34948C7.50435 2.34948 7.20386 2.04899 7.20386 1.67596C7.20386 1.30294 7.50435 1.00244 7.88256 1.00244Z" fill="white"/>
<path d="M28.8445 21.7261C29.2227 21.7261 29.5284 22.0266 29.5284 22.3996C29.5284 22.7726 29.2227 23.0731 28.8445 23.0731C28.4663 23.0731 28.1606 22.7726 28.1606 22.3996C28.1658 22.0266 28.4715 21.7261 28.8445 21.7261Z" fill="white"/>
<path d="M1.33379 13.3329C1.71148 13.3329 2.01767 13.0313 2.01767 12.6594C2.01767 12.2874 1.71148 11.9858 1.33379 11.9858C0.956087 11.9858 0.649902 12.2874 0.649902 12.6594C0.649902 13.0313 0.956087 13.3329 1.33379 13.3329Z" fill="white"/>
<path d="M27.0104 25.3528V18.773C27.0104 18.6176 26.855 18.4622 26.6944 18.4622C26.5338 18.4622 26.3783 18.6176 26.3783 18.773V25.0419H24.9121V18.773C24.9121 18.6176 24.7567 18.4622 24.5961 18.4622C24.4407 18.4622 24.2801 18.6176 24.2801 18.773V25.4046V25.4564H23.8086L25.7463 27.736L27.6839 25.4564H27.057C27.0104 25.4046 27.0104 25.3528 27.0104 25.3528Z" fill="white"/>
<path d="M6.83594 11.0532L8.61818 13.6437H17.8921C18.0475 13.6437 18.2081 13.7991 18.2081 13.9545C18.2081 14.11 18.0527 14.2654 17.8921 14.2654H9.03265L12.1257 18.8246H20.3012L25.1246 11.0532H6.83594ZM13.9597 17.8402H12.6489V16.545H13.9597V17.8402ZM15.9026 17.8402H14.5918V16.545H15.9026V17.8402ZM17.8921 17.8402H16.5813V16.545H17.8921V17.8402ZM19.8297 17.8402H18.5241V16.545H19.8349V17.8402H19.8297ZM19.8297 14.6281C19.4619 14.6281 19.1458 14.3172 19.1458 13.9545C19.1458 13.5919 19.4619 13.281 19.8297 13.281C20.1976 13.281 20.5136 13.5919 20.5136 13.9545C20.5136 14.3172 20.1976 14.6281 19.8297 14.6281Z" fill="white"/>
<path d="M16.7936 26.5961C16.69 26.5443 16.5864 26.4925 16.4258 26.4407V27.166C16.7418 27.166 16.8972 27.0624 16.8972 26.8551C16.8972 26.7515 16.8454 26.6997 16.7936 26.5961Z" fill="white"/>
<path d="M18.8869 22.2442V19.4983H13.6489V22.2442C14.3846 21.7261 15.2757 21.4152 16.2705 21.4152C17.2652 21.4152 18.1045 21.7261 18.8869 22.2442Z" fill="white"/>
<path d="M15.6902 24.9383C15.6902 25.042 15.742 25.1456 15.7938 25.1974C15.8456 25.2492 15.9492 25.301 16.1098 25.3528V24.5757C15.8508 24.6275 15.6902 24.7311 15.6902 24.9383Z" fill="white"/>
<path d="M15.9026 5.09521C14.7472 5.09521 13.7525 6.02778 13.7007 7.16759H18.1045C18.0475 6.02778 17.1046 5.09521 15.9026 5.09521Z" fill="white"/>
<path d="M6.46812 21.4151V14.7835C6.46812 14.6281 6.31269 14.4727 6.15208 14.4727C5.99148 14.4727 5.83605 14.6281 5.83605 14.7835V21.0524H4.36984V14.7835C4.36984 14.6281 4.21441 14.4727 4.05381 14.4727C3.89838 14.4727 3.73777 14.6281 3.73777 14.7835V21.4151H3.27148L5.20915 23.6947L7.14682 21.4151H6.46812Z" fill="white"/>
<path d="M4.11076 5.19874C4.63403 5.19874 5.1055 4.78426 5.1055 4.21436C5.1055 3.64446 4.68584 3.22998 4.11076 3.22998C3.5305 3.22998 3.11084 3.64446 3.11084 4.21436C3.11084 4.78426 3.5823 5.19874 4.11076 5.19874Z" fill="white"/>
<path d="M28.0622 3.9037C28.7979 3.9037 29.373 3.3338 29.373 2.60847C29.373 1.88314 28.7979 1.31323 28.0622 1.31323C27.3265 1.31323 26.7515 1.88314 26.7515 2.60847C26.7515 3.3338 27.3265 3.9037 28.0622 3.9037Z" fill="white"/>
<path d="M7.411 26.5962C6.88772 26.5962 6.41626 27.0107 6.41626 27.5806C6.41626 28.1505 6.83592 28.5649 7.411 28.5649C7.98608 28.5649 8.40574 28.1505 8.40574 27.5806C8.40574 27.0107 7.93427 26.5962 7.411 26.5962Z" fill="white"/>
<path d="M15.9025 4.42173C17.4205 4.42173 18.6795 5.61335 18.7831 7.11582H22.6066V6.85677L20.8244 6.4941C20.7207 6.4423 20.6171 6.39049 20.5601 6.23506C20.4565 5.71696 20.2441 5.19887 19.9332 4.73259C19.8814 4.62897 19.8814 4.47354 19.9332 4.36992L20.8762 2.86745L20.3011 2.29755L18.7831 3.23012C18.6795 3.28193 18.5189 3.28193 18.4152 3.23012C17.9438 2.91926 17.4205 2.71202 16.8972 2.6084C16.7936 2.55659 16.69 2.50478 16.633 2.34936L16.2703 0.639648H15.431L15.0632 2.34936C15.0114 2.45298 14.9595 2.55659 14.7989 2.6084C14.2757 2.71202 13.7524 2.91926 13.2809 3.23012C13.1773 3.28193 13.0167 3.28193 12.9131 3.23012L11.3951 2.29755L10.82 2.86745L11.7629 4.36992C11.8147 4.47354 11.8147 4.62897 11.7629 4.73259C11.4469 5.19887 11.2396 5.71696 11.136 6.23506C11.0842 6.33868 11.0324 6.4423 10.8718 6.4941L9.14136 6.85677V7.11582H12.9649C13.1255 5.66515 14.3793 4.42173 15.9025 4.42173Z" fill="white"/>
<path d="M18.4671 7.78931H5.10545C4.36976 7.78931 3.79468 8.35921 3.79468 9.08454C3.79468 9.80987 4.36976 10.3798 5.10545 10.3798H6.20381H25.6997H26.6944C27.4301 10.3798 28.0052 9.80987 28.0052 9.08454C28.0052 8.35921 27.4301 7.78931 26.6944 7.78931H18.4671Z" fill="white"/>
<path d="M28.6892 13.6438C27.9535 13.6438 27.3784 14.2137 27.3784 14.939C27.3784 15.6644 27.9535 16.2343 28.6892 16.2343C29.4249 16.2343 30 15.6644 30 14.939C30 14.2137 29.4249 13.6438 28.6892 13.6438Z" fill="white"/>
<path d="M16.2705 22.0369C14.1204 22.0369 12.3381 23.7984 12.3381 25.9226C12.3381 28.0468 14.1204 29.8083 16.2705 29.8083C18.4206 29.8083 20.2028 28.0468 20.2028 25.9226C20.2028 23.7984 18.4154 22.0369 16.2705 22.0369ZM17.8921 27.3732C17.7885 27.5287 17.6849 27.6841 17.5761 27.7877C17.4206 27.8913 17.26 27.9949 17.1046 28.0468C16.9492 28.0986 16.7367 28.1504 16.5295 28.1504V28.8757H16.1099V28.1504C15.8456 28.1504 15.5348 28.0468 15.2705 27.9949C15.0063 27.8913 14.7473 27.7877 14.5349 27.6323L14.9545 26.7515C14.9545 26.7515 15.0063 26.8033 15.1099 26.8551C15.1617 26.9069 15.2654 26.9588 15.3742 27.0106C15.4778 27.0624 15.6384 27.1142 15.742 27.166C15.8974 27.2178 16.0062 27.2696 16.1617 27.2696V26.4407L15.8456 26.337C15.6384 26.2852 15.4778 26.2334 15.3224 26.1298C15.1669 26.078 15.0581 25.9744 14.9545 25.8708C14.8509 25.7671 14.7991 25.6635 14.7421 25.5599C14.6903 25.4563 14.6903 25.3009 14.6903 25.1454C14.6903 24.9382 14.7421 24.731 14.7939 24.5755C14.8457 24.4201 14.9493 24.2647 15.1099 24.161C15.2136 24.0574 15.3742 23.9538 15.5296 23.902C15.685 23.8502 15.8974 23.7984 16.1047 23.7466V23.1249H16.5243V23.7466C16.7886 23.7466 17.0476 23.8502 17.26 23.902C17.4724 24.0056 17.6797 24.1092 17.8869 24.2129L17.4673 25.0418C17.4673 25.0418 17.4155 24.99 17.3636 24.9382C17.3118 24.8864 17.2082 24.8864 17.1512 24.8346C17.0994 24.7828 16.944 24.731 16.8352 24.731C16.7316 24.6791 16.6228 24.6791 16.4673 24.6273V25.4563L16.6746 25.5081C16.8818 25.5599 17.0942 25.6117 17.2497 25.7153C17.4051 25.7671 17.5657 25.8708 17.6693 25.9744C17.7729 26.078 17.8766 26.1816 17.9335 26.337C17.9854 26.4925 18.0372 26.6479 18.0372 26.8551C17.9957 27.0106 17.9439 27.2178 17.8921 27.3732Z" fill="white"/>
</g>
<defs>
<filter id="filter0_i_633_115" x="0.649902" y="0.639648" width="29.3501" height="33.1687" filterUnits="userSpaceOnUse" color-interpolation-filters="sRGB">
<feFlood flood-opacity="0" result="BackgroundImageFix"/>
<feBlend mode="normal" in="SourceGraphic" in2="BackgroundImageFix" result="shape"/>
<feColorMatrix in="SourceAlpha" type="matrix" values="0 0 0 0 0 0 0 0 0 0 0 0 0 0 0 0 0 0 127 0" result="hardAlpha"/>
<feOffset dy="4"/>
<feGaussianBlur stdDeviation="2"/>
<feComposite in2="hardAlpha" operator="arithmetic" k2="-1" k3="1"/>
<feColorMatrix type="matrix" values="0 0 0 0 0 0 0 0 0 0 0 0 0 0 0 0 0 0 0.25 0"/>
<feBlend mode="normal" in2="shape" result="effect1_innerShadow_633_115"/>
</filter>
<clipPath id="clip0_633_115">
<rect width="29.35" height="29.1687" fill="white" transform="translate(0.649902 0.639648)"/>
</clipPath>
</defs>
</svg>
