<svg width="31" height="30" viewBox="0 0 31 30" fill="none" xmlns="http://www.w3.org/2000/svg">
<g clip-path="url(#clip0_633_98)" filter="url(#filter0_i_633_98)">
<path d="M15.5048 19.1841C14.1842 19.1841 13.0864 20.271 13.0864 21.5753C13.0864 22.8796 14.1842 23.9665 15.5048 23.9665C16.8254 23.9665 17.9232 22.8796 17.9232 21.5753C17.9232 20.271 16.82 19.1841 15.5048 19.1841ZM16.5483 22.4448C16.4939 22.5535 16.4396 22.6622 16.3309 22.7166C16.2222 22.7709 16.1678 22.8253 15.9994 22.8796C15.8907 22.9339 15.782 22.934 15.6135 22.934V23.3687H15.3363V22.934C15.1733 22.934 14.9505 22.8796 14.7875 22.8253C14.6244 22.7709 14.4559 22.7166 14.2929 22.6079L14.5701 22.0644C14.5701 22.0644 14.6244 22.1188 14.6788 22.1188C14.7331 22.1731 14.7875 22.1731 14.8418 22.2275C14.8961 22.2818 15.0048 22.2818 15.0592 22.3361C15.1679 22.3905 15.2222 22.3905 15.3363 22.3905V21.847L15.1733 21.7927C15.0646 21.7383 14.9559 21.684 14.8418 21.684C14.7331 21.6296 14.6788 21.5753 14.6244 21.521C14.5701 21.4666 14.5157 21.4123 14.4614 21.3036C14.407 21.2492 14.407 21.1405 14.407 21.0318C14.407 20.8688 14.407 20.7601 14.4614 20.6514C14.5157 20.5427 14.5701 20.434 14.6788 20.3797C14.7331 20.3253 14.8418 20.271 14.9559 20.2167C15.0646 20.1623 15.1733 20.1623 15.2874 20.108V19.7275H15.5646V20.108C15.7276 20.108 15.8961 20.1623 16.0591 20.2167C16.2222 20.271 16.3363 20.3253 16.445 20.3797L16.1678 20.9232L16.1135 20.8688C16.0591 20.8688 16.0048 20.8145 15.9505 20.8145C15.8961 20.7601 15.8418 20.7601 15.7331 20.7601C15.6787 20.7601 15.57 20.7058 15.5157 20.7058V21.2492L15.6244 21.3036C15.7331 21.3579 15.9015 21.3579 16.0102 21.4123C16.1189 21.4666 16.2276 21.521 16.2874 21.5753C16.3417 21.6296 16.3961 21.7383 16.4504 21.7927C16.5048 21.9014 16.5048 22.0101 16.5048 22.1188C16.657 22.2275 16.6026 22.3361 16.5483 22.4448Z" fill="white"/>
<path d="M22.4287 20.5427C21.8798 20.5427 21.3853 20.9775 21.3853 21.5753C21.3853 22.1731 21.8255 22.6079 22.4287 22.6079C23.0319 22.6079 23.4721 22.1731 23.4721 21.5753C23.4721 20.9775 22.9776 20.5427 22.4287 20.5427Z" fill="white"/>
<path d="M15.8309 21.9559C15.7766 21.9015 15.7222 21.9015 15.6135 21.8472V22.3363C15.8309 22.3363 15.945 22.2819 15.945 22.1189C15.945 22.0646 15.8853 22.0102 15.8309 21.9559Z" fill="white"/>
<path d="M15.1733 20.8688C15.1733 20.9231 15.1733 20.9774 15.2277 21.0318C15.282 21.0861 15.3364 21.0861 15.4451 21.1405V20.6514C15.282 20.6514 15.1733 20.7601 15.1733 20.8688Z" fill="white"/>
<path d="M3.13577 7.93453C3.68466 7.93453 4.17921 7.49976 4.17921 6.90196C4.17921 6.30415 3.73901 5.86938 3.13577 5.86938C2.53253 5.86938 2.09233 6.30415 2.09233 6.90196C2.08689 7.49976 2.58144 7.93453 3.13577 7.93453Z" fill="white"/>
<path d="M8.63011 3.2065C9.17901 3.2065 9.67355 2.77174 9.67355 2.17393C9.67355 1.57612 9.23335 1.14136 8.63011 1.14136C8.02687 1.14136 7.58667 1.57612 7.58667 2.17393C7.58667 2.77174 8.08122 3.2065 8.63011 3.2065Z" fill="white"/>
<path d="M28.9174 4.56495C29.6891 4.56495 30.2924 3.96715 30.2924 3.2063C30.2924 2.44546 29.6891 1.84766 28.9174 1.84766C28.1457 1.84766 27.5425 2.44546 27.5425 3.2063C27.5425 3.96715 28.1457 4.56495 28.9174 4.56495Z" fill="white"/>
<path d="M26.1677 11.4671C26.9394 11.4671 27.5426 10.8692 27.5426 10.1084C27.5426 9.34756 26.9394 8.74976 26.1677 8.74976C25.396 8.74976 24.7927 9.34756 24.7927 10.1084C24.7927 10.8692 25.4014 11.4671 26.1677 11.4671Z" fill="white"/>
<path d="M13.4126 9.13018C13.1952 9.67364 12.8093 10.4345 12.2007 11.1953C11.5974 11.9018 11.2116 12.554 11.1572 13.3692H18.858C19.1896 10.9236 17.9776 8.36934 15.8364 6.84766C15.8364 7.98892 15.3962 9.72799 14.0756 10.9779C13.9669 11.0866 13.7984 11.0866 13.6897 11.0323C13.5811 10.9779 13.4724 10.8149 13.5267 10.6519C13.6897 9.99972 13.5811 9.51061 13.4126 9.13018Z" fill="white"/>
<path d="M8.41271 13.3691H10.4996C10.5539 12.2822 11.1028 11.467 11.7115 10.7605C12.7549 9.51054 13.0321 8.26058 13.0321 8.26058C13.0321 8.15189 13.1408 8.0432 13.2495 7.98885C13.3582 7.9345 13.5267 7.98885 13.581 8.09754C13.6354 8.15189 14.1299 8.74969 14.2386 9.72792C15.0647 8.47796 15.282 6.95628 15.0647 6.30413C15.0103 6.19544 15.0647 6.0324 15.1733 5.9237C15.282 5.81501 15.4505 5.81501 15.5592 5.9237C18.3091 7.49974 19.9014 10.5431 19.5156 13.4234H21.4394C22.8687 12.1191 23.5263 10.6518 23.4176 8.96708C23.2002 6.6302 21.4394 4.51071 20.2819 3.47814C20.3906 4.29333 20.2275 5.16286 19.4558 5.76067C19.3471 5.81501 19.2384 5.86936 19.1243 5.81501C19.0156 5.76067 18.9613 5.70632 18.9015 5.59763C18.1298 3.15206 16.7602 1.68472 15.7114 0.923881C15.119 0.434767 14.5158 0.163038 14.1299 0C14.2386 2.06514 12.918 4.45637 10.2279 7.17366C10.1192 7.28235 10.0105 7.28235 9.84201 7.28235C9.73332 7.22801 9.62462 7.11932 9.62462 7.01062C9.57028 6.30413 9.51593 5.81501 9.29311 5.27155C9.07573 5.97805 8.63553 6.68455 8.24967 7.3367C7.80947 8.0432 7.36927 8.80404 7.15188 9.61923C6.86929 11.0866 7.2008 12.2822 8.41271 13.3691Z" fill="white"/>
<path d="M21.6623 14.0757H19.1841H10.8311H8.24971H0V29.0208H30.95V14.0757H21.6623ZM28.9175 24.2927C28.9175 24.4558 28.7544 24.6188 28.586 24.6188C27.4882 24.6188 26.5534 25.5427 26.5534 26.6296C26.5534 26.7926 26.3904 26.9557 26.2219 26.9557H4.83679C4.67375 26.9557 4.50528 26.7926 4.50528 26.6296C4.50528 25.5427 3.57053 24.6188 2.47274 24.6188C2.3097 24.6188 2.14123 24.4558 2.14123 24.2927V18.8038C2.14123 18.6407 2.30427 18.4777 2.47274 18.4777C3.57053 18.4777 4.50528 17.5538 4.50528 16.4669C4.50528 16.3039 4.66831 16.1408 4.83679 16.1408H26.1676C26.3306 16.1408 26.4991 16.3039 26.4991 16.4669C26.4991 17.5538 27.4338 18.4777 28.5316 18.4777C28.6946 18.4777 28.8631 18.6407 28.8631 18.8038V24.2927H28.9175Z" fill="white"/>
<path d="M25.836 16.793H5.16825C5.00521 17.9886 4.01611 18.9668 2.8042 19.1298V23.9666C4.01611 24.1297 5.00521 25.1079 5.16825 26.3035H25.8958C26.0588 25.1079 27.0479 24.1297 28.2598 23.9666V19.1298C26.9936 18.9668 26.0045 17.9886 25.836 16.793ZM8.63008 23.2601C7.69533 23.2601 6.92362 22.4993 6.92362 21.5754C6.92362 20.6515 7.69533 19.8907 8.63008 19.8907C9.56483 19.8907 10.3365 20.6515 10.3365 21.5754C10.3365 22.4449 9.56483 23.2601 8.63008 23.2601ZM15.5048 24.6188C13.7984 24.6188 12.4234 23.2601 12.4234 21.5754C12.4234 19.8907 13.7984 18.532 15.5048 18.532C17.2113 18.532 18.5863 19.8907 18.5863 21.5754C18.5808 23.2601 17.2059 24.6188 15.5048 24.6188ZM22.4285 23.2601C21.4938 23.2601 20.722 22.4993 20.722 21.5754C20.722 20.6515 21.4938 19.8907 22.4285 19.8907C23.3633 19.8907 24.135 20.6515 24.135 21.5754C24.135 22.4449 23.3633 23.2601 22.4285 23.2601Z" fill="white"/>
<path d="M8.63011 20.5427C8.08122 20.5427 7.58667 20.9775 7.58667 21.5753C7.58667 22.1731 8.02687 22.6079 8.63011 22.6079C9.23335 22.6079 9.67355 22.1731 9.67355 21.5753C9.67355 20.9775 9.17901 20.5427 8.63011 20.5427Z" fill="white"/>
</g>
<defs>
<filter id="filter0_i_633_98" x="0" y="0" width="30.95" height="33.0208" filterUnits="userSpaceOnUse" color-interpolation-filters="sRGB">
<feFlood flood-opacity="0" result="BackgroundImageFix"/>
<feBlend mode="normal" in="SourceGraphic" in2="BackgroundImageFix" result="shape"/>
<feColorMatrix in="SourceAlpha" type="matrix" values="0 0 0 0 0 0 0 0 0 0 0 0 0 0 0 0 0 0 127 0" result="hardAlpha"/>
<feOffset dy="4"/>
<feGaussianBlur stdDeviation="2"/>
<feComposite in2="hardAlpha" operator="arithmetic" k2="-1" k3="1"/>
<feColorMatrix type="matrix" values="0 0 0 0 0 0 0 0 0 0 0 0 0 0 0 0 0 0 0.25 0"/>
<feBlend mode="normal" in2="shape" result="effect1_innerShadow_633_98"/>
</filter>
<clipPath id="clip0_633_98">
<rect width="30.95" height="29.0207" fill="white"/>
</clipPath>
</defs>
</svg>
