<svg width="30" height="28" viewBox="0 0 30 28" fill="none" xmlns="http://www.w3.org/2000/svg">
<g clip-path="url(#clip0_633_170)" filter="url(#filter0_i_633_170)">
<path d="M21.3606 9.77563C21.1565 9.77563 21.0569 9.87522 21.0569 10.0246C21.0569 10.1242 21.1067 10.174 21.1565 10.2238C21.2063 10.2736 21.3058 10.3234 21.4104 10.3234L21.3606 9.77563Z" fill="white"/>
<path d="M21.9182 11.4687C21.9182 11.3691 21.8684 11.3193 21.8186 11.2695C21.7688 11.2197 21.6693 11.1699 21.5647 11.1699V11.7176C21.8137 11.7176 21.9182 11.6181 21.9182 11.4687Z" fill="white"/>
<path d="M7.96635 11.3193C7.91655 11.2695 7.81697 11.2197 7.7124 11.2197V11.7675C7.96635 11.7675 8.06593 11.6679 8.06593 11.5185C8.06593 11.4189 8.01614 11.3691 7.96635 11.3193Z" fill="white"/>
<path d="M26.1458 4.24869C26.8528 4.24869 27.4055 3.70096 27.4055 3.00386C27.4055 2.30676 26.8528 1.75903 26.1458 1.75903C25.4387 1.75903 24.886 2.30676 24.886 3.00386C24.886 3.70096 25.4437 4.24869 26.1458 4.24869Z" fill="white"/>
<path d="M21.9182 17.6928C21.9182 17.5932 21.8684 17.5434 21.8186 17.4936C21.7688 17.4438 21.6693 17.394 21.5647 17.394V17.9418C21.8137 17.9418 21.9182 17.8422 21.9182 17.6928Z" fill="white"/>
<path d="M21.3606 15.9998C21.1565 15.9998 21.0569 16.0993 21.0569 16.2487C21.0569 16.3483 21.1067 16.3981 21.1565 16.4479C21.2063 16.4977 21.3058 16.5475 21.4104 16.5475L21.3606 15.9998Z" fill="white"/>
<path d="M7.96635 17.5434C7.91655 17.4936 7.81697 17.4438 7.7124 17.4438V17.9916C7.96635 17.9916 8.06593 17.892 8.06593 17.7426C8.06593 17.643 8.01614 17.5932 7.96635 17.5434Z" fill="white"/>
<path d="M7.20947 10.0744C7.20947 10.174 7.25927 10.2238 7.30906 10.2736C7.35885 10.3234 7.45844 10.3732 7.563 10.3732V9.82544C7.30906 9.82544 7.20947 9.87523 7.20947 10.0744Z" fill="white"/>
<path d="M7.20947 16.2985C7.20947 16.3981 7.25927 16.4479 7.30906 16.4977C7.35885 16.5475 7.45844 16.5973 7.563 16.5973V16.0496C7.30906 16.0496 7.20947 16.0994 7.20947 16.2985Z" fill="white"/>
<path d="M28.969 24.8132H19.8519V22.6223C19.8519 22.473 19.7025 22.3236 19.5482 22.3236H14.8129V18.4895L17.9847 17.4439C18.1888 19.1368 19.6478 20.4314 21.4104 20.4314C23.3225 20.4314 24.886 18.8879 24.886 16.9957C24.886 15.6015 24.0793 14.4065 22.8694 13.8587C24.0793 13.311 24.886 12.116 24.886 10.7218C24.886 8.82964 23.3225 7.28606 21.4104 7.28606C19.598 7.28606 18.0843 8.68027 17.9349 10.4728L14.8129 11.6181V6.73833H18.2884C20.2005 6.73833 21.764 5.19475 21.764 3.30261V2.6553C21.764 2.50592 21.6146 2.35654 21.4602 2.35654H17.6859C16.5257 2.35654 15.4701 2.95406 14.8626 3.80054V2.00799C14.8626 1.85861 14.7133 1.70923 14.5589 1.70923C14.4095 1.70923 14.2552 1.85861 14.2552 2.00799V3.80054C13.6527 2.90426 12.5921 2.35654 11.4319 2.35654H7.6526C7.50322 2.35654 7.34886 2.50592 7.34886 2.6553V3.30261C7.34886 5.19475 8.91237 6.73833 10.8244 6.73833H14.3V11.6181L11.1282 10.5724C11.0286 8.77985 9.51486 7.38564 7.6526 7.38564C5.74055 7.38564 4.17704 8.92923 4.17704 10.8214C4.17704 12.2156 4.98369 13.4106 6.19366 13.9583C4.98369 14.5061 4.17704 15.7011 4.17704 17.0953C4.17704 18.9874 5.74055 20.531 7.6526 20.531C9.41528 20.531 10.8742 19.2364 11.0784 17.5434L14.2502 18.5891V22.4232H10.1721C10.0228 22.4232 9.8684 22.5725 9.8684 22.7219V24.9128H0.661648C0.50729 24.9128 0.35791 25.0622 0.35791 25.2116V27.7012C0.35791 27.8506 0.50729 28 0.661648 28H10.1323H19.6029H29.0736C29.223 28 29.3773 27.8506 29.3773 27.7012V25.2116C29.3226 24.9626 29.1682 24.8132 28.969 24.8132ZM21.1615 11.0703C21.0121 11.0205 20.8577 10.9707 20.7582 10.921C20.6586 10.8712 20.559 10.8214 20.5092 10.7218C20.4594 10.672 20.4096 10.5724 20.3598 10.4728C20.31 10.3732 20.31 10.2736 20.31 10.1741C20.31 10.0247 20.3598 9.8753 20.4096 9.77571C20.4594 9.67613 20.559 9.52675 20.6138 9.47695C20.7133 9.37737 20.8129 9.32758 20.9673 9.27778C21.0669 9.22799 21.2212 9.1782 21.3706 9.1782V8.73006H21.6743V9.1782C21.8735 9.1782 22.0777 9.22799 22.227 9.32758C22.3764 9.37737 22.5308 9.47696 22.6802 9.52675L22.3266 10.1243C22.3266 10.1243 22.2768 10.0745 22.227 10.0745C22.1773 10.0247 22.1275 10.0247 22.0777 9.97489C22.0279 9.92509 21.9283 9.92509 21.8237 9.8753C21.7241 9.82551 21.6743 9.82551 21.5698 9.82551V10.423L21.7192 10.4728C21.8685 10.5226 22.0229 10.5724 22.1225 10.6222C22.2221 10.672 22.3764 10.7218 22.4262 10.8214C22.5258 10.8712 22.5756 10.9707 22.6254 11.0703C22.6752 11.1699 22.6752 11.3193 22.6752 11.4687C22.6752 11.6181 22.6254 11.7674 22.5756 11.9168C22.5258 12.0164 22.4262 12.116 22.3217 12.2156C22.2221 12.3152 22.1175 12.365 21.9681 12.365C21.8187 12.4147 21.7142 12.4147 21.5648 12.4147V12.9127H21.2611V12.365C21.0619 12.365 20.8577 12.3152 20.6586 12.2156C20.4594 12.1658 20.2552 12.0662 20.1059 11.9666L20.4594 11.3193C20.4594 11.3193 20.5092 11.3691 20.559 11.3691C20.6088 11.4189 20.6586 11.4189 20.7582 11.4687C20.8577 11.5185 20.9075 11.5185 21.0619 11.5683C21.1615 11.6181 21.2611 11.6181 21.3656 11.6181V11.0205L21.1615 11.0703ZM20.4544 17.5932C20.4544 17.5932 20.5042 17.643 20.554 17.643C20.6038 17.6928 20.6536 17.6928 20.7532 17.7426C20.8528 17.7924 20.9025 17.7924 21.0569 17.8422C21.1565 17.892 21.2561 17.892 21.3606 17.892V17.2945L21.1565 17.2447C21.0071 17.1949 20.8528 17.1451 20.7532 17.0953C20.6536 17.0455 20.554 16.9957 20.5042 16.8961C20.4544 16.8463 20.4046 16.7467 20.3548 16.6472C20.305 16.5476 20.305 16.448 20.305 16.3484C20.305 16.199 20.3548 16.0496 20.4046 15.9501C20.4544 15.8505 20.554 15.7011 20.6088 15.6513C20.7084 15.5517 20.8079 15.5019 20.9623 15.4521C21.0619 15.4023 21.2162 15.3525 21.3656 15.3525V14.9044H21.6694V15.3525C21.8685 15.3525 22.0727 15.4023 22.2221 15.5019C22.3714 15.5517 22.5258 15.6513 22.6752 15.7011L22.3217 16.2986C22.3217 16.2986 22.2719 16.2488 22.2221 16.2488C22.1723 16.199 22.1225 16.199 22.0727 16.1492C22.0229 16.0994 21.9233 16.0994 21.8187 16.0496C21.7192 15.9999 21.6694 15.9999 21.5648 15.9999V16.5974L21.7142 16.6472C21.8636 16.697 22.0179 16.7467 22.1175 16.7965C22.2171 16.8463 22.3714 16.8961 22.4212 16.9957C22.5208 17.0455 22.5706 17.1451 22.6204 17.2447C22.6702 17.3443 22.6702 17.4936 22.6702 17.643C22.6702 17.7924 22.6204 17.9418 22.5706 18.0912C22.5208 18.1908 22.4212 18.2903 22.3167 18.3899C22.2171 18.4895 22.1125 18.5393 21.9631 18.5393C21.8138 18.5891 21.7092 18.5891 21.5598 18.5891V19.087H21.2561V18.5393C21.0569 18.5393 20.8528 18.4895 20.6536 18.3899C20.4544 18.3401 20.2503 18.2405 20.1009 18.141L20.4544 17.5932ZM14.8129 12.2654L17.9847 11.2197C18.1341 12.4147 18.8909 13.4106 20.0013 13.9085C18.8909 14.4065 18.0892 15.5019 17.9847 16.7965L14.8129 17.8422V12.2654ZM8.76797 18.0912C8.71817 18.1908 8.61859 18.2903 8.51402 18.3899C8.41444 18.4895 8.31485 18.5393 8.16049 18.5393C8.01111 18.5891 7.90655 18.5891 7.75717 18.5891V19.087H7.45343V18.5393C7.24928 18.5393 7.0501 18.4895 6.85093 18.3899C6.64678 18.3401 6.44761 18.2405 6.29823 18.141L6.65176 17.4936C6.65176 17.4936 6.70155 17.5434 6.75135 17.5434C6.80114 17.5932 6.85093 17.5932 6.9555 17.643C7.05508 17.6928 7.10488 17.6928 7.25924 17.7426C7.35882 17.7924 7.46339 17.7924 7.56297 17.7924V17.1949L7.35882 17.1451C7.20944 17.0953 7.05508 17.0455 6.9555 16.9957C6.85591 16.9459 6.75135 16.8961 6.70155 16.7965C6.65176 16.7467 6.60197 16.6472 6.55217 16.5476C6.50238 16.448 6.50238 16.3484 6.50238 16.2488C6.50238 16.0994 6.55217 15.9501 6.60197 15.8505C6.65176 15.7509 6.75135 15.6015 6.80114 15.5517C6.90073 15.4521 7.00031 15.4023 7.15467 15.3525C7.25426 15.3027 7.40862 15.253 7.55799 15.253V14.9044H7.75717V15.3525C7.96132 15.3525 8.16049 15.4023 8.30987 15.5019C8.45925 15.5517 8.61361 15.6513 8.76299 15.7011L8.40946 16.2986C8.40946 16.2986 8.35966 16.2488 8.30987 16.2488C8.26008 16.199 8.21028 16.199 8.16049 16.1492C8.1107 16.0994 8.01111 16.0994 7.90655 16.0496C7.80696 15.9999 7.75717 15.9999 7.6526 15.9999V16.5974L7.80198 16.6472C7.95136 16.697 8.10572 16.7467 8.20531 16.7965C8.30489 16.8463 8.45925 16.8961 8.50904 16.9957C8.60863 17.0455 8.65842 17.1451 8.70822 17.2447C8.75801 17.3443 8.75801 17.4936 8.75801 17.643C8.87253 17.7924 8.81776 17.9418 8.76797 18.0912ZM8.76797 11.867C8.71817 11.9666 8.61859 12.0662 8.51402 12.1658C8.41444 12.2654 8.31485 12.3152 8.16049 12.3152C8.01111 12.365 7.90655 12.365 7.75717 12.365V12.8629H7.45343V12.3152C7.24928 12.3152 7.0501 12.2654 6.85093 12.1658C6.64678 12.116 6.44761 12.0164 6.29823 11.9168L6.65176 11.2695C6.65176 11.2695 6.70155 11.3193 6.75135 11.3193C6.80114 11.3691 6.85093 11.3691 6.9555 11.4189C7.05508 11.4687 7.10488 11.4687 7.25924 11.5185C7.35882 11.5683 7.46339 11.5683 7.56297 11.5683V10.9707L7.35882 10.921C7.20944 10.8712 7.05508 10.8214 6.9555 10.7716C6.85591 10.7218 6.75135 10.672 6.70155 10.5724C6.65176 10.5226 6.60197 10.423 6.55217 10.3234C6.50238 10.2239 6.50238 10.1243 6.50238 10.0247C6.50238 9.8753 6.55217 9.72592 6.60197 9.62633C6.65176 9.52675 6.75135 9.37737 6.80114 9.32758C6.90073 9.22799 7.00031 9.1782 7.15467 9.1284C7.25426 9.07861 7.40862 9.02882 7.55799 9.02882V8.58068H7.75717V9.02882C7.96132 9.02882 8.16049 9.07861 8.30987 9.1782C8.45925 9.22799 8.61361 9.32758 8.76299 9.37737L8.40946 9.97489C8.40946 9.97489 8.35966 9.92509 8.30987 9.92509C8.26008 9.8753 8.21028 9.8753 8.16049 9.82551C8.1107 9.77571 8.01111 9.77571 7.90655 9.72592C7.80696 9.67613 7.75717 9.67613 7.6526 9.67613V10.423L7.80198 10.4728C7.95136 10.5226 8.10572 10.5724 8.20531 10.6222C8.30489 10.672 8.45925 10.7218 8.50904 10.8214C8.60863 10.8712 8.65842 10.9707 8.70822 11.0703C8.75801 11.1699 8.75801 11.3193 8.75801 11.4687C8.87253 11.5683 8.81776 11.7176 8.76797 11.867ZM14.2104 17.8422L11.0385 16.7965C10.9389 15.5019 10.1323 14.4065 9.02191 13.9085C10.0775 13.4106 10.8842 12.4147 11.0385 11.2197L14.2104 12.2654V17.8422Z" fill="white"/>
<path d="M1.92141 22.3235C2.77786 22.3235 3.48492 21.6264 3.48492 20.7799C3.48492 19.9334 2.77786 19.2363 1.92141 19.2363C1.06497 19.2363 0.35791 19.9334 0.35791 20.7799C0.35791 21.6264 1.06497 22.3235 1.92141 22.3235Z" fill="white"/>
<path d="M2.22022 5.49332C2.92728 5.49332 3.47998 4.94559 3.47998 4.24849C3.47998 3.55139 2.92728 3.00366 2.22022 3.00366C1.51315 3.00366 0.960449 3.55139 0.960449 4.24849C0.960449 4.94559 1.51813 5.49332 2.22022 5.49332Z" fill="white"/>
<path d="M26.4495 20.1326C26.813 20.1326 27.1018 20.4214 27.1018 20.7799C27.1018 21.1384 26.808 21.4272 26.4495 21.4272C26.086 21.4272 25.7922 21.1384 25.7922 20.7799C25.7922 20.4214 26.086 20.1326 26.4495 20.1326Z" fill="white"/>
<path d="M27.1018 13.2612C27.4652 13.2612 27.759 13.55 27.759 13.9085C27.759 14.2671 27.4652 14.5559 27.1018 14.5559C26.7383 14.5559 26.4495 14.2671 26.4495 13.9085C26.4495 13.55 26.7432 13.2612 27.1018 13.2612Z" fill="white"/>
<path d="M23.9299 5.19458C24.2934 5.19458 24.5871 5.48338 24.5871 5.84189C24.5871 6.2004 24.2934 6.4892 23.9299 6.4892C23.5664 6.4892 23.2776 6.2004 23.2776 5.84189C23.2776 5.48338 23.5714 5.19458 23.9299 5.19458Z" fill="white"/>
<path d="M5.69575 0.215332C6.05924 0.215332 6.35302 0.504132 6.35302 0.862643C6.35302 1.22115 6.05924 1.50995 5.69575 1.50995C5.33724 1.50995 5.04346 1.22115 5.04346 0.862643C5.04346 0.504132 5.33724 0.215332 5.69575 0.215332Z" fill="white"/>
<path d="M1.92143 15.8007C2.28443 15.8007 2.5787 15.5109 2.5787 15.1534C2.5787 14.7959 2.28443 14.5061 1.92143 14.5061C1.55843 14.5061 1.26416 14.7959 1.26416 15.1534C1.26416 15.5109 1.55843 15.8007 1.92143 15.8007Z" fill="white"/>
<path d="M7.56303 21.9749C7.92652 21.9749 8.21532 22.2637 8.21532 22.6222C8.21532 22.9807 7.92154 23.2695 7.56303 23.2695C7.19954 23.2695 6.90576 22.9807 6.90576 22.6222C6.90576 22.2637 7.19954 21.9749 7.56303 21.9749Z" fill="white"/>
<path d="M2.52397 7.68433C2.88746 7.68433 3.18124 7.97313 3.18124 8.33164C3.18124 8.69015 2.88746 8.97895 2.52397 8.97895C2.16048 8.97895 1.8667 8.69015 1.8667 8.33164C1.8667 7.97313 2.16048 7.68433 2.52397 7.68433Z" fill="white"/>
</g>
<defs>
<filter id="filter0_i_633_170" x="0.35791" y="0.215332" width="29.0144" height="29.7764" filterUnits="userSpaceOnUse" color-interpolation-filters="sRGB">
<feFlood flood-opacity="0" result="BackgroundImageFix"/>
<feBlend mode="normal" in="SourceGraphic" in2="BackgroundImageFix" result="shape"/>
<feColorMatrix in="SourceAlpha" type="matrix" values="0 0 0 0 0 0 0 0 0 0 0 0 0 0 0 0 0 0 127 0" result="hardAlpha"/>
<feOffset dy="1.99172"/>
<feGaussianBlur stdDeviation="0.995862"/>
<feComposite in2="hardAlpha" operator="arithmetic" k2="-1" k3="1"/>
<feColorMatrix type="matrix" values="0 0 0 0 0 0 0 0 0 0 0 0 0 0 0 0 0 0 0.25 0"/>
<feBlend mode="normal" in2="shape" result="effect1_innerShadow_633_170"/>
</filter>
<clipPath id="clip0_633_170">
<rect width="29.0145" height="27.7846" fill="white" transform="translate(0.35791 0.215332)"/>
</clipPath>
</defs>
</svg>
