<svg width="31" height="30" viewBox="0 0 31 30" fill="none" xmlns="http://www.w3.org/2000/svg">
<g clip-path="url(#clip0_633_140)" filter="url(#filter0_i_633_140)">
<path d="M13.8738 11.4511H17.4445C17.4445 10.3657 17.2817 9.33469 17.0049 8.35791C16.0173 8.79204 14.9754 9.06336 13.8738 9.06336V11.4511Z" fill="white"/>
<path d="M21.2864 12.1565H18.101C18.101 13.3503 17.9382 14.4899 17.6072 15.5752C18.2095 15.9008 18.8173 16.3349 19.3654 16.8233C20.5158 15.521 21.1724 13.893 21.2864 12.1565Z" fill="white"/>
<path d="M13.8738 14.4897C14.9699 14.544 16.0173 14.7611 17.0049 15.1952C17.2817 14.2184 17.3902 13.1874 17.4445 12.1021H13.8738V14.4897Z" fill="white"/>
<path d="M26.9409 15.5209C26.9409 16.2807 27.5433 16.8776 28.3138 16.8776C29.0844 16.8776 29.6868 16.2807 29.6868 15.5209C29.6868 14.7612 29.0844 14.1643 28.3138 14.1643C27.5433 14.1643 26.9409 14.7612 26.9409 15.5209Z" fill="white"/>
<path d="M13.8737 25.0173C13.1031 25.0173 12.5007 25.6143 12.5007 26.374C12.5007 27.1337 13.1031 27.7306 13.8737 27.7306C14.6442 27.7306 15.2466 27.1337 15.2466 26.374C15.2466 25.6143 14.6442 25.0173 13.8737 25.0173Z" fill="white"/>
<path d="M13.8738 19.428C14.7529 19.2652 15.5777 18.5055 16.2343 17.3117C16.4514 16.8775 16.6739 16.4434 16.8367 15.9008C15.9033 15.4666 14.9157 15.2496 13.928 15.1953L13.8738 19.428Z" fill="white"/>
<path d="M17.4444 16.2263C17.2816 16.7147 17.0591 17.2031 16.842 17.6372C16.511 18.2341 16.1257 18.7768 15.7458 19.1567C16.956 18.8311 18.0521 18.1799 18.9312 17.3116C18.432 16.8775 17.9382 16.4976 17.4444 16.2263Z" fill="white"/>
<path d="M13.8738 4.17944V8.41216C14.9157 8.3579 15.9033 8.14084 16.7824 7.70671C16.6196 7.21832 16.3971 6.72993 16.1801 6.2958C15.5777 5.04769 14.7529 4.34224 13.8738 4.17944Z" fill="white"/>
<path d="M25.2912 6.07866C25.2912 5.97013 25.237 5.86159 25.1284 5.80733C25.0199 5.75306 24.9114 5.6988 24.7432 5.64453V6.45852C25.0742 6.40425 25.2912 6.29572 25.2912 6.07866Z" fill="white"/>
<path d="M1.1918 20.2964C0.64372 20.2964 0.149902 20.7305 0.149902 21.3274C0.149902 21.9244 0.589454 22.3585 1.1918 22.3585C1.73989 22.3585 2.2337 21.9244 2.2337 21.3274C2.2337 20.7305 1.73989 20.2964 1.1918 20.2964Z" fill="white"/>
<path d="M3.60663 1.30335C3.60663 0.923494 3.28104 0.5979 2.89575 0.5979C2.51046 0.5979 2.17944 0.923494 2.17944 1.30335C2.17944 1.68321 2.51046 2.00881 2.89575 2.00881C3.28104 1.95454 3.60663 1.62895 3.60663 1.30335Z" fill="white"/>
<path d="M24.412 3.47388C24.0864 3.52814 23.9182 3.63667 23.9182 3.85374C23.9182 3.96227 23.9725 4.0708 24.0267 4.12506C24.081 4.17933 24.2438 4.2336 24.412 4.28786V3.47388Z" fill="white"/>
<path d="M24.3577 9.38893C24.412 9.38893 24.4663 9.38893 24.5205 9.38893C26.9896 9.38893 28.9649 7.43537 28.9649 4.99342C28.9649 2.55146 26.9896 0.5979 24.5205 0.5979C22.0514 0.5979 20.0762 2.55146 20.0762 4.99342C20.0762 7.3811 21.9429 9.33467 24.3577 9.38893ZM24.0864 5.37328C23.8693 5.31901 23.6468 5.21048 23.4841 5.15621C23.3213 5.10195 23.153 4.99342 23.0445 4.88489C22.936 4.77635 22.8817 4.66782 22.8274 4.50503C22.7732 4.34223 22.7732 4.2337 22.7732 4.01664C22.7732 3.79957 22.8274 3.58251 22.8817 3.36545C22.9902 3.20265 23.0988 3.03985 23.2127 2.87706C23.3755 2.76853 23.5437 2.65999 23.7065 2.55146C23.8693 2.4972 24.0918 2.44293 24.3089 2.38867V1.68321H24.8027V2.38867C25.0795 2.44293 25.4051 2.4972 25.6275 2.60573C25.9043 2.71426 26.1214 2.82279 26.3384 2.93132L25.8392 3.85384C25.8392 3.85384 25.7849 3.79957 25.7306 3.74531C25.6764 3.69104 25.5679 3.63678 25.4539 3.63678C25.3454 3.58251 25.2368 3.52824 25.1229 3.47398C25.0143 3.41971 24.8461 3.41971 24.7376 3.36545V4.39649L24.9547 4.45076C25.1717 4.50503 25.3942 4.55929 25.6113 4.66782C25.7741 4.72209 25.9423 4.83062 26.1051 4.93915C26.2136 5.04768 26.3221 5.21048 26.4361 5.37328C26.4904 5.53607 26.5446 5.69887 26.5446 5.9702C26.5446 6.24153 26.4904 6.45859 26.3818 6.62139C26.2733 6.78418 26.1648 6.94698 25.9966 7.05551C25.8338 7.16404 25.6655 7.27257 25.4485 7.32684C25.2314 7.3811 25.0089 7.43537 24.7919 7.43537V8.24936H24.3523V7.43537C24.0213 7.3811 23.6957 7.32684 23.4189 7.21831C23.0879 7.10978 22.8166 7.00125 22.5941 6.83845L23.0879 5.86167C23.0879 5.86167 23.1422 5.91593 23.2507 5.9702C23.305 6.02446 23.4135 6.07873 23.5817 6.133C23.6903 6.18726 23.8585 6.24153 24.0213 6.29579C24.1841 6.35006 24.3523 6.40432 24.5151 6.40432V5.48181L24.0864 5.37328Z" fill="white"/>
<path d="M19.3654 6.78418C18.8173 7.27257 18.2692 7.7067 17.6072 8.03229C17.8839 9.06334 18.0467 10.2572 18.101 11.451H21.2864C21.1724 9.66026 20.5158 8.03229 19.3654 6.78418Z" fill="white"/>
<path d="M17.4444 7.38103C17.9925 7.05543 18.4863 6.72984 18.9259 6.29572C18.0468 5.48173 16.9506 4.83054 15.7405 4.45068C16.1258 4.83054 16.5111 5.3732 16.8366 5.97012C17.0591 6.40425 17.2762 6.89264 17.4444 7.38103Z" fill="white"/>
<path d="M13.2171 4.17944C12.338 4.34224 11.5131 5.10196 10.8565 6.2958C10.6394 6.72993 10.4169 7.16405 10.2542 7.70671C11.1875 8.14084 12.1752 8.3579 13.1628 8.41216V4.17944H13.2171Z" fill="white"/>
<path d="M28.6394 26.374C28.4766 26.374 28.3083 26.5368 28.3083 26.6996C28.3083 26.8624 28.4711 27.0252 28.6394 27.0252C28.8076 27.0252 28.9704 26.8624 28.9704 26.6996C28.9704 26.5368 28.8076 26.374 28.6394 26.374Z" fill="white"/>
<path d="M13.2172 12.1565H9.64648C9.64648 13.2418 9.80928 14.2729 10.086 15.2496C11.0737 14.8155 12.1156 14.5442 13.2172 14.5442V12.1565Z" fill="white"/>
<path d="M13.2172 9.06336C12.121 9.0091 11.0737 8.79204 10.086 8.35791C9.80928 9.33469 9.70075 10.3657 9.64648 11.4511H13.2172V9.06336Z" fill="white"/>
<path d="M24.1949 11.7766C24.1949 11.1796 24.1407 10.637 24.0322 10.0401C23.0988 9.93152 22.2197 9.60593 21.5088 9.11754C21.7856 9.93153 21.9483 10.854 21.9483 11.7766C21.9483 14.0014 21.0692 16.0093 19.6421 17.4744L19.5878 17.5287C18.0521 19.1024 15.9086 20.0792 13.548 20.0792C8.87576 20.1335 5.14771 16.3891 5.14771 11.7766C5.14771 9.55167 6.02681 7.54384 7.454 6.07867L7.50827 6.0244C9.04398 4.4507 11.1875 3.47391 13.548 3.47391C15.8543 3.47391 17.9381 4.39643 19.4793 5.8616C19.425 5.59027 19.425 5.31895 19.425 4.99335C19.425 4.34216 19.5335 3.74524 19.756 3.20259C17.9435 1.95448 15.8055 1.24902 13.6077 1.24902C7.72533 1.24902 2.94995 5.97013 2.94995 11.7766C2.94995 17.583 7.72533 22.3041 13.5969 22.3041C19.4196 22.3041 24.1949 17.583 24.1949 11.7766Z" fill="white"/>
<path d="M10.2486 17.583C10.0315 17.1489 9.80904 16.7148 9.64625 16.1721C9.09816 16.4977 8.60435 16.8233 8.16479 17.2574C9.0439 18.0714 10.1401 18.7226 11.3502 19.1025C10.9649 18.7226 10.5796 18.2342 10.2486 17.583Z" fill="white"/>
<path d="M7.72545 16.8233C8.27353 16.3349 8.82161 15.9008 9.48365 15.5752C9.2069 14.5442 9.0441 13.3503 8.98984 12.1565H5.80444C5.91297 13.893 6.57502 15.521 7.72545 16.8233Z" fill="white"/>
<path d="M10.2487 5.97012C10.5797 5.3732 10.9595 4.83054 11.3448 4.45068C10.1347 4.77628 9.03853 5.42747 8.15942 6.29572C8.59898 6.72984 9.09279 7.1097 9.64088 7.38103C9.8091 6.89264 10.0316 6.40425 10.2487 5.97012Z" fill="white"/>
<path d="M5.80444 11.451H8.98984C8.98984 10.2572 9.15263 9.1176 9.48365 8.03229C8.88131 7.7067 8.27353 7.27257 7.72545 6.78418C6.57502 8.03229 5.91297 9.66026 5.80444 11.451Z" fill="white"/>
<path d="M13.217 19.428V15.1953C12.1751 15.2496 11.1875 15.4666 10.3083 15.9008C10.4711 16.3892 10.6936 16.8775 10.9107 17.3117C11.513 18.5055 12.3379 19.2652 13.217 19.428Z" fill="white"/>
<path d="M30.2891 25.0173L23.0392 17.8542C22.1601 19.2109 21.0096 20.3505 19.6367 21.2187L26.8812 28.3818C27.3207 28.8159 27.9231 29.0872 28.5851 29.0872C29.2417 29.0872 29.8495 28.8159 30.2891 28.3818C30.7286 27.9477 31.0054 27.3507 31.0054 26.6995C30.9999 26.0484 30.7286 25.5057 30.2891 25.0173ZM28.6394 27.7306C28.0913 27.7306 27.5975 27.2965 27.5975 26.6995C27.5975 26.1026 28.037 25.6685 28.6394 25.6685C29.2417 25.6685 29.6813 26.1026 29.6813 26.6995C29.6813 27.2965 29.1875 27.7306 28.6394 27.7306Z" fill="white"/>
</g>
<defs>
<filter id="filter0_i_633_140" x="0.149902" y="0.597656" width="30.8501" height="32.4895" filterUnits="userSpaceOnUse" color-interpolation-filters="sRGB">
<feFlood flood-opacity="0" result="BackgroundImageFix"/>
<feBlend mode="normal" in="SourceGraphic" in2="BackgroundImageFix" result="shape"/>
<feColorMatrix in="SourceAlpha" type="matrix" values="0 0 0 0 0 0 0 0 0 0 0 0 0 0 0 0 0 0 127 0" result="hardAlpha"/>
<feOffset dy="4"/>
<feGaussianBlur stdDeviation="2"/>
<feComposite in2="hardAlpha" operator="arithmetic" k2="-1" k3="1"/>
<feColorMatrix type="matrix" values="0 0 0 0 0 0 0 0 0 0 0 0 0 0 0 0 0 0 0.25 0"/>
<feBlend mode="normal" in2="shape" result="effect1_innerShadow_633_140"/>
</filter>
<clipPath id="clip0_633_140">
<rect width="30.85" height="28.4895" fill="white" transform="translate(0.149902 0.597656)"/>
</clipPath>
</defs>
</svg>
